HIERARCHY
ROOT Hips
{
 OFFSET 0.000000 0.000000 0.000000
 CHANNELS 6 Xposition Yposition Zposition Yrotation Xrotation Zrotation
 JOINT Chest
 {
  OFFSET 0.000000 103.927959 -11.547555
  CHANNELS 3 Yrotation Xrotation Zrotation
  JOINT Chest2
  {
   OFFSET 0.000000 116.259650 0.000000
   CHANNELS 3 Yrotation Xrotation Zrotation
   JOINT Chest3
   {
    OFFSET 0.000000 106.135078 0.000000
    CHANNELS 3 Yrotation Xrotation Zrotation
    JOINT Chest4
    {
     OFFSET 0.000000 106.016608 0.000000
     CHANNELS 3 Yrotation Xrotation Zrotation
     JOINT Neck
     {
      OFFSET 0.000000 148.478086 0.000000
      CHANNELS 3 Yrotation Xrotation Zrotation
      JOINT Head
      {
       OFFSET 0.000000 98.684725 0.000000
       CHANNELS 3 Yrotation Xrotation Zrotation
       End Site
       {
        OFFSET 0.000000 183.657339 0.000000
       }
      }
     }
     JOINT RightCollar
     {
      OFFSET -32.301251 83.229558 0.000000
      CHANNELS 3 Yrotation Xrotation Zrotation
      JOINT RightShoulder
      {
       OFFSET -148.983121 0.000000 0.000000
       CHANNELS 3 Yrotation Xrotation Zrotation
       JOINT RightElbow
       {
        OFFSET 0.000000 -318.416921 0.000000
        CHANNELS 3 Yrotation Xrotation Zrotation
        JOINT RightWrist
        {
         OFFSET 0.000000 -260.384535 0.000000
         CHANNELS 3 Yrotation Xrotation Zrotation
         End Site
         {
          OFFSET 0.000000 -194.729091 0.000000
         }
        }
       }
      }
     }
     JOINT LeftCollar
     {
      OFFSET 32.301251 83.229558 0.000000
      CHANNELS 3 Yrotation Xrotation Zrotation
      JOINT LeftShoulder
      {
       OFFSET 148.983121 0.000000 0.000000
       CHANNELS 3 Yrotation Xrotation Zrotation
       JOINT LeftElbow
       {
        OFFSET 0.000000 -318.416921 0.000000
        CHANNELS 3 Yrotation Xrotation Zrotation
        JOINT LeftWrist
        {
         OFFSET 0.000000 -260.384535 0.000000
         CHANNELS 3 Yrotation Xrotation Zrotation
         End Site
         {
          OFFSET 0.000000 -194.729091 0.000000
         }
        }
       }
      }
     }
    }
   }
  }
 }
 JOINT RightHip
 {
  OFFSET -85.448433 0.000000 0.000000
  CHANNELS 3 Yrotation Xrotation Zrotation
  JOINT RightKnee
  {
   OFFSET 0.000000 -444.902608 0.000000
   CHANNELS 3 Yrotation Xrotation Zrotation
   JOINT RightAnkle
   {
    OFFSET 0.000000 -434.916856 0.000000
    CHANNELS 3 Yrotation Xrotation Zrotation
    JOINT RightToe
    {
     OFFSET 0.000000 -65.483541 148.093546
     CHANNELS 3 Yrotation Xrotation Zrotation
     End Site
     {
      OFFSET 0.000000 -15.533754 66.277348
     }
    }
   }
  }
 }
 JOINT LeftHip
 {
  OFFSET 85.448433 0.000000 0.000000
  CHANNELS 3 Yrotation Xrotation Zrotation
  JOINT LeftKnee
  {
   OFFSET 0.000000 -444.902608 0.000000
   CHANNELS 3 Yrotation Xrotation Zrotation
   JOINT LeftAnkle
   {
    OFFSET 0.000000 -434.916856 0.000000
    CHANNELS 3 Yrotation Xrotation Zrotation
    JOINT LeftToe
    {
     OFFSET 0.000000 -65.483541 148.093546
     CHANNELS 3 Yrotation Xrotation Zrotation
     End Site
     {
      OFFSET 0.000000 -15.533754 66.277348
     }
    }
   }
  }
 }
}
MOTION
Frames: 12
Frame Time: 0.016667
-1843.566878 958.789482 3847.784466 -142.622146 5.934359 -0.901681 -0.640715 -3.484975 -0.509751 -0.264784 -7.374467 -0.233105 -0.262663 -1.554097 -0.259995 -0.217593 4.671189 -0.196282 10.359315 20.110601 8.536962 16.274924 1.001686 12.407398 1.044022 -7.456995 9.007952 51.413813 -39.537541 -28.968942 -27.672083 -49.672833 53.932399 -34.355172 -0.148501 1.331540 -1.174317 -3.909934 -4.791614 -34.224835 -36.863040 52.339981 24.075111 -76.396310 -57.987135 -3.345410 -3.095355 -29.804086 -5.458810 -5.006514 -0.387809 0.003976 4.140592 0.220189 -12.297104 -6.955470 2.316796 0.000000 0.000000 0.000000 6.476437 -7.478491 5.304469 0.104642 3.197367 0.231494 7.305523 -1.789315 -1.194475 0.000000 -0.000000 0.000000
-1843.548967 958.746419 3847.656166 -142.624496 5.959479 -0.904895 -0.641159 -3.468106 -0.494142 -0.265560 -7.366994 -0.226094 -0.263437 -1.546624 -0.253062 -0.217623 4.676793 -0.191067 10.405893 20.068528 8.515013 16.365097 0.924736 12.350477 1.108796 -7.484656 9.035466 50.918620 -39.752098 -28.596118 -28.009775 -49.360200 54.360315 -34.838894 0.676445 1.216191 -1.104394 -3.905609 -4.776125 -34.294050 -36.637071 52.425748 24.550251 -76.193066 -58.434164 -2.884108 -3.084199 -30.091462 -5.466995 -5.012411 -0.381449 0.018979 4.115591 0.230691 -12.297799 -6.955379 2.310146 0.000000 0.000000 -0.000000 6.484524 -7.499186 5.309142 0.100789 3.198569 0.231040 7.308209 -1.799083 -1.187308 0.000000 -0.000000 0.000000
-1843.547550 958.696112 3847.547984 -142.617603 5.980863 -0.910799 -0.651191 -3.444734 -0.474485 -0.270737 -7.356626 -0.217331 -0.268579 -1.536259 -0.244825 -0.220826 4.684567 -0.184882 10.459406 20.041049 8.489536 16.469507 0.874957 12.286058 1.163597 -7.558803 9.083893 50.216243 -40.070747 -28.149759 -28.584368 -48.923079 55.109506 -35.628484 1.963485 1.227421 -1.014518 -3.908558 -4.738787 -34.375283 -36.371471 52.494583 25.281933 -75.840122 -59.137940 -1.834459 -3.155156 -30.572182 -5.476047 -5.008136 -0.375205 0.031550 4.079473 0.243429 -12.303186 -6.950764 2.304369 0.000000 0.000000 0.000000 6.488764 -7.512299 5.315049 0.110967 3.188440 0.231686 7.292729 -1.805045 -1.175894 -0.000000 -0.000000 0.000000
-1843.514942 958.659317 3847.474414 -142.604889 5.994021 -0.918114 -0.659621 -3.421981 -0.460531 -0.274989 -7.346527 -0.211112 -0.272803 -1.526162 -0.239037 -0.223534 4.692140 -0.180537 10.499575 20.035146 8.480120 16.545371 0.864227 12.256392 1.206710 -7.627519 9.123266 49.646100 -40.331774 -27.793161 -28.981055 -48.602715 55.631717 -36.225605 3.072267 1.312162 -0.949478 -3.918235 -4.715845 -34.411103 -36.181173 52.514739 25.841558 -75.632374 -59.677584 -1.088289 -3.212253 -30.873901 -5.472776 -4.997651 -0.368334 0.032483 4.043169 0.255403 -12.314278 -6.942822 2.299499 0.000000 0.000000 0.000000 6.487784 -7.515726 5.323702 0.118867 3.167433 0.233247 7.278980 -1.799871 -1.170578 -0.000000 -0.000000 0.000000
-1843.426991 958.646970 3847.464262 -142.588260 5.993471 -0.928314 -0.662125 -3.401271 -0.456321 -0.276244 -7.337327 -0.209213 -0.274053 -1.516962 -0.237266 -0.224328 4.699040 -0.179206 10.520277 20.062685 8.498979 16.578102 0.913702 12.286420 1.232065 -7.671805 9.145061 49.359757 -40.472516 -27.613745 -29.025111 -48.534834 55.687069 -36.397207 3.800028 1.565742 -0.933733 -3.935965 -4.720939 -34.368743 -36.116293 52.450486 26.068199 -75.734677 -59.883181 -1.048908 -3.229572 -30.781243 -5.445763 -4.978937 -0.360234 0.014445 4.008617 0.265948 -12.332731 -6.929255 2.296542 -0.000000 -0.000000 -0.000000 6.478784 -7.503310 5.337103 0.117302 3.129946 0.236861 7.278187 -1.776592 -1.177042 0.000000 0.000000 0.000000
-1843.307848 958.648135 3847.488721 -142.565808 5.984699 -0.939930 -0.663041 -3.381182 -0.457809 -0.276579 -7.328395 -0.209855 -0.274389 -1.508031 -0.237942 -0.224630 4.705739 -0.179713 10.527729 20.111716 8.534032 16.582392 1.002006 12.351430 1.245663 -7.710678 9.157892 49.211370 -40.559104 -27.530072 -28.909519 -48.594143 55.536307 -36.367269 4.351760 1.937011 -0.942890 -3.960422 -4.740305 -34.281248 -36.126547 52.337686 26.155398 -75.983514 -59.955826 -1.311836 -3.239381 -30.503030 -5.406426 -4.954032 -0.351476 -0.015229 3.973876 0.275730 -12.356891 -6.912365 2.294487 0.000000 0.000000 -0.000000 6.464573 -7.481206 5.353254 0.113458 3.081581 0.241391 7.279123 -1.742173 -1.189600 -0.000000 -0.000000 0.000000
-1843.182277 958.650763 3847.475859 -142.535230 5.979669 -0.947265 -0.664195 -3.364581 -0.462625 -0.276894 -7.321008 -0.211994 -0.274706 -1.500644 -0.240112 -0.225036 4.711280 -0.181345 10.520135 20.153453 8.568451 16.559308 1.077058 12.419263 1.263869 -7.749258 9.157520 49.100677 -40.626648 -27.458753 -28.796675 -48.646137 55.410335 -36.321089 4.701575 2.202463 -0.948533 -3.987065 -4.768996 -34.190038 -36.176388 52.252164 26.252245 -76.182903 -60.074726 -1.554234 -3.249250 -30.289903 -5.375832 -4.932984 -0.343109 -0.043731 3.944059 0.283756 -12.382802 -6.900253 2.290344 0.000000 0.000000 0.000000 6.452184 -7.465791 5.367666 0.112592 3.039603 0.243234 7.268004 -1.710186 -1.201556 0.000000 -0.000000 0.000000
-1843.047062 958.651688 3847.407648 -142.492970 5.983316 -0.946947 -0.666501 -3.350022 -0.469644 -0.277638 -7.314524 -0.215130 -0.275446 -1.494160 -0.243324 -0.225842 4.716144 -0.183763 10.489094 20.176693 8.597739 16.494617 1.118558 12.483469 1.297680 -7.797161 9.131868 49.005172 -40.680036 -27.372248 -28.743825 -48.638071 55.398886 -36.320189 4.761556 2.275361 -0.934241 -4.024959 -4.815443 -34.092011 -36.285694 52.224300 26.443679 -76.260596 -60.364827 -1.678110 -3.258595 -30.245422 -5.364951 -4.919881 -0.336508 -0.065252 3.919484 0.290507 -12.409430 -6.895100 2.282391 0.000000 0.000000 0.000000 6.442715 -7.463283 5.378563 0.121300 3.007276 0.239582 7.234453 -1.682208 -1.210656 0.000000 -0.000000 0.000000
-1842.905419 958.654077 3847.302116 -142.442585 5.990697 -0.942339 -0.669054 -3.338943 -0.479988 -0.278365 -7.309581 -0.219763 -0.276170 -1.489217 -0.248031 -0.226754 4.719852 -0.187305 10.442976 20.192667 8.626389 16.402493 1.146896 12.550490 1.336114 -7.844714 9.092951 48.947627 -40.714518 -27.298399 -28.694056 -48.622626 55.412409 -36.306214 4.620216 2.241317 -0.916424 -4.064990 -4.871270 -33.990193 -36.434822 52.223326 26.642422 -76.288372 -60.698541 -1.780697 -3.269636 -30.265563 -5.362817 -4.910621 -0.330323 -0.085594 3.899833 0.295510 -12.437807 -6.894726 2.272353 0.000000 -0.000000 -0.000000 6.435058 -7.467471 5.387719 0.132993 2.981345 0.233220 7.188846 -1.656664 -1.219171 0.000000 -0.000000 0.000000
-1842.791752 958.655379 3847.141407 -142.392454 5.998956 -0.937847 -0.670944 -3.338538 -0.494667 -0.278642 -7.309375 -0.226349 -0.276444 -1.489012 -0.254645 -0.227481 4.720008 -0.192281 10.405040 20.206248 8.650971 16.326423 1.170998 12.607466 1.362551 -7.868172 9.072739 48.894866 -40.750286 -27.236025 -28.639715 -48.623788 55.413692 -36.288392 4.520344 2.128273 -0.915923 -4.075420 -4.906264 -33.935688 -36.529022 52.234153 26.737879 -76.286737 -60.874472 -1.830637 -3.297244 -30.287834 -5.357599 -4.902947 -0.321560 -0.109366 3.889270 0.296356 -12.467074 -6.900686 2.262421 0.000000 0.000000 0.000000 6.432925 -7.476087 5.395968 0.133145 2.969283 0.228941 7.148531 -1.642405 -1.227191 0.000000 0.000000 0.000000
-1842.718781 958.655805 3846.895972 -142.342928 6.008233 -0.934924 -0.672689 -3.355685 -0.517209 -0.278568 -7.316957 -0.236481 -0.276366 -1.496594 -0.264770 -0.228226 4.714323 -0.199900 10.383996 20.222936 8.671673 16.282378 1.200886 12.652537 1.367466 -7.853280 9.089464 48.834720 -40.797426 -27.189677 -28.568622 -48.672348 55.393182 -36.258783 4.549548 1.898489 -0.947528 -4.034266 -4.901243 -33.967269 -36.516589 52.262247 26.681940 -76.256737 -60.790174 -1.791466 -3.361828 -30.289811 -5.343220 -4.895601 -0.307534 -0.141405 3.889168 0.290466 -12.498682 -6.914477 2.252641 0.000000 0.000000 0.000000 6.441137 -7.490431 5.403557 0.111419 2.976239 0.228750 7.118895 -1.644698 -1.234363 0.000000 0.000000 0.000000
-1842.673786 958.655144 3846.595360 -142.293656 6.018389 -0.932115 -0.673759 -3.383492 -0.544120 -0.278040 -7.329271 -0.248583 -0.275835 -1.508907 -0.276818 -0.228783 4.705090 -0.208965 10.371101 20.237229 8.688266 16.254358 1.226505 12.687536 1.360402 -7.814364 9.125008 48.779338 -40.845817 -27.154787 -28.492774 -48.737520 55.360306 -36.225966 4.620866 1.589827 -0.996370 -3.963523 -4.875384 -34.046126 -36.449069 52.302417 26.523089 -76.197637 -60.548466 -1.699677 -3.442690 -30.294129 -5.325753 -4.889856 -0.290934 -0.176883 3.898154 0.280438 -12.531184 -6.934599 2.242982 0.000000 0.000000 0.000000 6.454873 -7.509204 5.410220 0.078141 2.997045 0.230676 7.094557 -1.658281 -1.241022 0.000000 0.000000 0.000000
